#define peas3_width 48
#define peas3_height 48
static unsigned char peas3_bits[] = {
  0x00, 0x00, 0x00, 0x00, 0x00, 0x00, 0x00, 0x00, 0x00, 0x00, 0x00, 0x00,
  0xfc, 0xff, 0xff, 0xff, 0xff, 0x3f, 0x04, 0x00, 0x00, 0x00, 0x00, 0x20,
  0x04, 0x00, 0x00, 0x00, 0x00, 0x20, 0x04, 0x00, 0x00, 0x00, 0x00, 0x20,
  0x04, 0x00, 0x00, 0x00, 0x00, 0x20, 0x04, 0x00, 0x00, 0x00, 0x00, 0x20,
  0x04, 0x00, 0x00, 0x00, 0x00, 0x20, 0x04, 0x00, 0x00, 0x00, 0x00, 0x20,
  0x04, 0x00, 0x00, 0x00, 0x00, 0x24, 0xe4, 0x0f, 0xff, 0x00, 0xe1, 0x27,
  0x9c, 0xd1, 0x0c, 0x00, 0x11, 0x20, 0x8c, 0x61, 0x6c, 0xc0, 0x11, 0x20,
  0x8c, 0x61, 0x1c, 0x40, 0x31, 0x20, 0x94, 0x71, 0x0c, 0x20, 0xc3, 0x23,
  0xa4, 0x91, 0x0c, 0x38, 0x03, 0x2e, 0x84, 0x0f, 0x0c, 0xd0, 0x02, 0x30,
  0xc4, 0x01, 0x8c, 0x09, 0x0f, 0x30, 0x24, 0x00, 0xfe, 0x06, 0x0e, 0x30,
  0x14, 0x00, 0x00, 0x00, 0x3c, 0x28, 0x14, 0x00, 0x00, 0x00, 0xf8, 0x27,
  0x14, 0x80, 0xff, 0x0f, 0x00, 0x20, 0x04, 0x00, 0x77, 0x07, 0x00, 0x20,
  0x04, 0x00, 0x22, 0x02, 0x00, 0x20, 0x04, 0x00, 0x22, 0x02, 0x00, 0x20,
  0x04, 0x00, 0x22, 0x02, 0x00, 0x20, 0x04, 0x00, 0x22, 0x02, 0x00, 0x20,
  0x04, 0x00, 0x22, 0x02, 0x00, 0x20, 0x04, 0x00, 0x22, 0x02, 0x00, 0x20,
  0x04, 0x00, 0x22, 0x02, 0x00, 0x20, 0x04, 0x00, 0x22, 0x02, 0x00, 0x20,
  0x04, 0x00, 0x77, 0x07, 0x00, 0x20, 0x04, 0x80, 0xff, 0x0f, 0x00, 0x20,
  0x04, 0x00, 0x00, 0x00, 0x00, 0x20, 0x04, 0x00, 0x00, 0x00, 0x00, 0x20,
  0x04, 0xd8, 0x00, 0x08, 0x02, 0x20, 0x04, 0x50, 0xa4, 0x0c, 0x05, 0x20,
  0x04, 0x50, 0x6e, 0x08, 0x05, 0x20, 0x04, 0x20, 0x22, 0x08, 0x05, 0x20,
  0x04, 0x20, 0x24, 0x5c, 0x02, 0x20, 0x04, 0x00, 0x00, 0x00, 0x00, 0x20,
  0x04, 0x00, 0x00, 0x00, 0x00, 0x20, 0x04, 0x00, 0x00, 0x00, 0x00, 0x20,
  0x04, 0x00, 0x00, 0x00, 0x00, 0x20, 0xfc, 0xff, 0xff, 0xff, 0xff, 0x3f,
  0x00, 0x00, 0x00, 0x00, 0x00, 0x00, 0x00, 0x00, 0x00, 0x00, 0x00, 0x00,
  };
