#define swgen_width 48
#define swgen_height 48
static unsigned char swgen_bits[] = {
   0x00, 0x00, 0x00, 0x00, 0x00, 0x00, 0x00, 0x00, 0x00, 0x00, 0x00, 0x00,
   0xfc, 0xff, 0xff, 0xff, 0xff, 0x3f, 0x04, 0x00, 0xc0, 0x03, 0x00, 0x20,
   0x04, 0x00, 0xe0, 0x07, 0x00, 0x20, 0x04, 0x00, 0x70, 0x0e, 0x00, 0x20,
   0x04, 0x00, 0x38, 0x1c, 0x00, 0x20, 0x04, 0x00, 0x1c, 0x38, 0x00, 0x20,
   0x04, 0x00, 0x0e, 0x70, 0x00, 0x20, 0x04, 0x00, 0x07, 0xe0, 0x00, 0x20,
   0x04, 0x80, 0x01, 0xc0, 0x01, 0x20, 0x04, 0xc0, 0x00, 0x80, 0x03, 0x20,
   0x04, 0x60, 0x00, 0x00, 0x07, 0x20, 0x04, 0x30, 0x00, 0x00, 0x0e, 0x20,
   0x04, 0x18, 0x00, 0x00, 0x1c, 0x20, 0x04, 0x00, 0x00, 0x00, 0x38, 0x20,
   0x04, 0xfc, 0x61, 0xc0, 0x31, 0x23, 0x04, 0xfe, 0x67, 0xc0, 0xa1, 0x23,
   0x44, 0x07, 0xee, 0xe0, 0x81, 0x23, 0x64, 0x03, 0xec, 0x60, 0x83, 0x21,
   0x74, 0x03, 0xcc, 0x60, 0x83, 0x25, 0x3c, 0x03, 0xc0, 0x60, 0xc3, 0x2d,
   0x1c, 0x0f, 0xc0, 0x31, 0xc3, 0x3d, 0x1c, 0xfe, 0x80, 0x31, 0xc6, 0x38,
   0x3c, 0xf8, 0x87, 0x31, 0xc6, 0x38, 0x74, 0x80, 0x8f, 0x19, 0xc6, 0x3c,
   0x24, 0x00, 0x9c, 0x1b, 0xec, 0x2e, 0x84, 0x01, 0x18, 0x1b, 0x6c, 0x26,
   0x84, 0x01, 0x18, 0x1b, 0x6c, 0x23, 0x04, 0x03, 0x18, 0x0f, 0x6c, 0x21,
   0x04, 0x07, 0x0c, 0x0f, 0x38, 0x20, 0x04, 0xfe, 0x07, 0x0e, 0x38, 0x20,
   0x04, 0xfc, 0x01, 0x0e, 0x38, 0x20, 0x04, 0x00, 0x00, 0x00, 0x00, 0x20,
   0x04, 0x60, 0x00, 0x00, 0x0e, 0x20, 0x04, 0xc0, 0x00, 0x00, 0x07, 0x20,
   0x04, 0x80, 0x01, 0x80, 0x03, 0x20, 0x04, 0x00, 0x03, 0xc0, 0x01, 0x20,
   0x04, 0x00, 0x06, 0xe0, 0x00, 0x20, 0x04, 0x00, 0x0e, 0x70, 0x00, 0x20,
   0x04, 0x00, 0x1c, 0x38, 0x00, 0x20, 0x04, 0x00, 0x38, 0x1c, 0x00, 0x20,
   0x04, 0x00, 0x70, 0x0e, 0x00, 0x20, 0x04, 0x00, 0xe0, 0x07, 0x00, 0x20,
   0x04, 0x00, 0xc0, 0x03, 0x00, 0x20, 0xfc, 0xff, 0xff, 0xff, 0xff, 0x3f,
   0x00, 0x00, 0x00, 0x00, 0x00, 0x00, 0x00, 0x00, 0x00, 0x00, 0x00, 0x00,
 };
