#define behdecl_width 48
#define behdecl_height 48
static unsigned char behdecl_bits[] = {
  0x00, 0x00, 0x00, 0x00, 0x00, 0x00, 0x00, 0x00, 0x00, 0x00, 0x00, 0x00,
  0xfc, 0xff, 0xff, 0xff, 0xff, 0x3f, 0x04, 0x00, 0x00, 0x00, 0x00, 0x20,
  0x04, 0x00, 0x00, 0x00, 0x80, 0x20, 0x04, 0x00, 0x00, 0x00, 0x80, 0x20,
  0x84, 0xe7, 0x79, 0x00, 0x80, 0x20, 0x84, 0x67, 0xdb, 0x0c, 0x40, 0x28,
  0xc4, 0x6c, 0xdb, 0x0c, 0x40, 0x28, 0xc4, 0x6f, 0xdb, 0x00, 0x40, 0x28,
  0xc4, 0x6f, 0xdb, 0x00, 0x40, 0x28, 0xc4, 0x6c, 0xdb, 0x0c, 0x20, 0x24,
  0xc4, 0xec, 0x79, 0x0c, 0x20, 0x24, 0x04, 0x00, 0x00, 0x00, 0x20, 0x24,
  0x04, 0x00, 0x00, 0x00, 0x20, 0x24, 0x04, 0x00, 0x00, 0x00, 0x10, 0x22,
  0x04, 0x00, 0x00, 0x00, 0x10, 0x22, 0x04, 0x00, 0x00, 0x00, 0x10, 0x22,
  0x04, 0x00, 0x00, 0x00, 0x10, 0x22, 0x04, 0x00, 0x00, 0x00, 0x08, 0x21,
  0x04, 0x00, 0x00, 0x00, 0x08, 0x21, 0x04, 0x04, 0x00, 0x01, 0x08, 0x21,
  0x04, 0x0a, 0x80, 0x82, 0x08, 0x21, 0x04, 0x91, 0x4e, 0x84, 0x84, 0x20,
  0x04, 0x1f, 0xc0, 0xe7, 0x87, 0x20, 0x04, 0x91, 0x4e, 0x84, 0x84, 0x20,
  0x04, 0x11, 0x40, 0x84, 0x84, 0x20, 0x04, 0x00, 0x00, 0x00, 0x5e, 0x20,
  0x04, 0x00, 0x00, 0x00, 0x62, 0x20, 0x04, 0x00, 0x00, 0x00, 0x42, 0x20,
  0x04, 0x00, 0x00, 0x00, 0x26, 0x20, 0x04, 0x00, 0x00, 0x00, 0x1e, 0x20,
  0x04, 0x00, 0x00, 0x00, 0x0e, 0x20, 0x04, 0xaa, 0xaa, 0x02, 0x04, 0x20,
  0x04, 0x00, 0x00, 0x00, 0x00, 0x20, 0x04, 0x00, 0x00, 0x00, 0x00, 0x20,
  0x04, 0x00, 0x00, 0x00, 0x00, 0x20, 0x04, 0x00, 0x00, 0x00, 0x00, 0x20,
  0x04, 0x00, 0x00, 0x00, 0x00, 0x20, 0x04, 0x00, 0x00, 0x00, 0x00, 0x20,
  0x04, 0x00, 0x00, 0x00, 0x00, 0x20, 0x04, 0x00, 0x00, 0x00, 0x00, 0x20,
  0x04, 0x00, 0x00, 0x00, 0x00, 0x20, 0x04, 0x00, 0x00, 0x00, 0x00, 0x20,
  0x04, 0x00, 0x00, 0x00, 0x00, 0x20, 0xfc, 0xff, 0xff, 0xff, 0xff, 0x3f,
  0x00, 0x00, 0x00, 0x00, 0x00, 0x00, 0x00, 0x00, 0x00, 0x00, 0x00, 0x00,
  };
