#define issgen_width 48
#define issgen_height 48
static unsigned char issgen_bits[] = {
  0x00, 0x00, 0x00, 0x00, 0x00, 0x00, 0x00, 0x00, 0x00, 0x00, 0x00, 0x00,
  0xfc, 0xff, 0xff, 0xff, 0xff, 0x3f, 0x04, 0x00, 0x00, 0x00, 0x00, 0x20,
  0x04, 0x00, 0xe0, 0x01, 0x00, 0x20, 0x04, 0x00, 0xe0, 0x01, 0x00, 0x20,
  0x04, 0x00, 0xe0, 0x01, 0x00, 0x20, 0x04, 0x00, 0xe0, 0x01, 0x00, 0x20,
  0x04, 0x00, 0xf0, 0x03, 0x00, 0x20, 0x04, 0x00, 0xe0, 0x01, 0x00, 0x20,
  0x04, 0x00, 0xc0, 0x00, 0x00, 0x20, 0xe4, 0xff, 0xff, 0xff, 0xff, 0x27,
  0x24, 0x00, 0x00, 0x00, 0x00, 0x24, 0x24, 0x00, 0x00, 0x00, 0x00, 0x24,
  0xa4, 0x1c, 0x87, 0xe7, 0x1b, 0x25, 0xa4, 0xa2, 0x48, 0x28, 0x18, 0x25,
  0xa4, 0x82, 0x40, 0x20, 0x28, 0x25, 0xa4, 0x1c, 0x47, 0xe0, 0x2b, 0x25,
  0xa4, 0x20, 0x48, 0x2c, 0x48, 0x25, 0xa4, 0xa2, 0x48, 0x28, 0x48, 0x25,
  0xa4, 0xa2, 0x48, 0x2c, 0x88, 0x25, 0xa4, 0x1c, 0x87, 0xeb, 0x8b, 0x25,
  0x24, 0x00, 0x00, 0x00, 0x00, 0x24, 0x24, 0x00, 0x00, 0x00, 0x00, 0x24,
  0xe4, 0xff, 0xff, 0xff, 0xff, 0x27, 0x04, 0x00, 0xe0, 0x03, 0x00, 0x20,
  0x04, 0x00, 0xe0, 0x03, 0x00, 0x20, 0x04, 0xf8, 0xff, 0xff, 0x3f, 0x20,
  0x04, 0x08, 0x80, 0x00, 0x20, 0x20, 0x04, 0x88, 0x90, 0x87, 0x20, 0x20,
  0x04, 0x88, 0x90, 0x88, 0x20, 0x20, 0x04, 0x88, 0x90, 0x90, 0x20, 0x20,
  0x04, 0x88, 0x9f, 0x90, 0x20, 0x20, 0x04, 0x88, 0x90, 0x90, 0x20, 0x20,
  0x04, 0x88, 0x90, 0x90, 0x20, 0x20, 0x04, 0x88, 0x90, 0x88, 0x20, 0x20,
  0x04, 0x88, 0x90, 0x87, 0x27, 0x20, 0x04, 0x08, 0x00, 0x00, 0x20, 0x20,
  0x04, 0x88, 0x1f, 0x00, 0x20, 0x20, 0x04, 0x78, 0xe0, 0x01, 0x20, 0x20,
  0x04, 0x18, 0x00, 0x07, 0x10, 0x20, 0x04, 0x00, 0x00, 0x38, 0x08, 0x20,
  0x04, 0x00, 0x00, 0xc0, 0x07, 0x20, 0x04, 0x00, 0x00, 0x00, 0x00, 0x20,
  0x04, 0x00, 0x00, 0x00, 0x00, 0x20, 0xfc, 0xff, 0xff, 0xff, 0xff, 0x3f,
  0x00, 0x00, 0x00, 0x00, 0x00, 0x00, 0x00, 0x00, 0x00, 0x00, 0x00, 0x00,
  };
