#define rtest_width 48
#define rtest_height 48
static unsigned char rtest_bits[] = {
  0x00, 0x00, 0x00, 0x00, 0x00, 0x00, 0x00, 0x00, 0x00, 0x00, 0x00, 0x00,
  0xfc, 0xff, 0xff, 0xff, 0xff, 0x3f, 0x04, 0x00, 0x00, 0x00, 0x00, 0x20,
  0x04, 0x00, 0x00, 0x00, 0x00, 0x20, 0x04, 0x00, 0x00, 0x00, 0x00, 0x20,
  0x04, 0x00, 0x00, 0x00, 0x00, 0x20, 0x04, 0x00, 0x00, 0x00, 0x00, 0x20,
  0x04, 0x00, 0x00, 0x00, 0x00, 0x20, 0x04, 0x00, 0xf0, 0x03, 0x00, 0x20,
  0x04, 0x00, 0x0c, 0x0c, 0x00, 0x20, 0x04, 0x00, 0x03, 0x30, 0x00, 0x20,
  0x04, 0x80, 0x00, 0x40, 0x00, 0x20, 0x04, 0x80, 0x00, 0x40, 0x00, 0x20,
  0x04, 0x40, 0x3f, 0x80, 0x00, 0x20, 0x04, 0x40, 0x01, 0x90, 0x00, 0x20,
  0x04, 0x20, 0x01, 0x10, 0x01, 0x20, 0x04, 0x20, 0xc1, 0x7b, 0x01, 0x20,
  0x04, 0x20, 0x5f, 0x10, 0x01, 0x20, 0x04, 0x20, 0x41, 0x10, 0x01, 0x20,
  0x04, 0x20, 0xc1, 0x13, 0x01, 0x20, 0x04, 0x40, 0x01, 0xb2, 0x00, 0x20,
  0x04, 0x40, 0xdf, 0x83, 0x00, 0x20, 0x04, 0x80, 0x00, 0x40, 0x00, 0x20,
  0x04, 0x80, 0x00, 0xc0, 0x00, 0x20, 0x04, 0x00, 0x03, 0xf0, 0x01, 0x20,
  0x04, 0x00, 0x0c, 0xfc, 0x03, 0x20, 0x04, 0x00, 0xf0, 0xc3, 0x07, 0x20,
  0x04, 0x00, 0x00, 0x80, 0x0f, 0x20, 0x04, 0x00, 0x00, 0x00, 0x1f, 0x20,
  0x04, 0x7e, 0xfe, 0x00, 0x3e, 0x20, 0x04, 0xc4, 0x92, 0x00, 0x7c, 0x20,
  0x04, 0x84, 0x10, 0x00, 0xf8, 0x20, 0x04, 0xc4, 0x10, 0x00, 0xf0, 0x21,
  0x04, 0x7c, 0x10, 0x00, 0xe0, 0x23, 0x04, 0x24, 0x10, 0x00, 0xc0, 0x21,
  0x04, 0x44, 0x10, 0x00, 0x80, 0x20, 0x04, 0x84, 0x10, 0x00, 0x00, 0x20,
  0x04, 0x8e, 0x39, 0x00, 0x00, 0x20, 0x04, 0x00, 0x00, 0x00, 0x00, 0x20,
  0x04, 0x00, 0x00, 0x00, 0x00, 0x20, 0x04, 0x00, 0x00, 0x00, 0x00, 0x20,
  0x04, 0x00, 0x00, 0x00, 0x00, 0x20, 0x04, 0x00, 0x00, 0x00, 0x00, 0x20,
  0x04, 0x00, 0x00, 0x00, 0x00, 0x20, 0xfc, 0xff, 0xff, 0xff, 0xff, 0x3f,
  0x00, 0x00, 0x00, 0x00, 0x00, 0x00, 0x00, 0x00, 0x00, 0x00, 0x00, 0x00,
  };
